<svg width="33" height="33" viewBox="0 0 33 33" fill="none" xmlns="http://www.w3.org/2000/svg">
	<path d="M23.4689 2.72314H9.85308C6.09317 2.72314 3.04517 5.77115 3.04517 9.53105V23.1469C3.04517 26.9068 6.09317 29.9548 9.85308 29.9548H23.4689C27.2288 29.9548 30.2768 26.9068 30.2768 23.1469V9.53105C30.2768 5.77115 27.2288 2.72314 23.4689 2.72314Z" stroke="white" stroke-width="2.72316" stroke-linecap="round" stroke-linejoin="round" />
	<path d="M22.1074 15.4814C22.2754 16.6146 22.0819 17.7719 21.5542 18.7887C21.0266 19.8056 20.1918 20.6301 19.1686 21.1452C18.1453 21.6602 16.9857 21.8395 15.8547 21.6575C14.7237 21.4755 13.6789 20.9415 12.8688 20.1315C12.0588 19.3214 11.5248 18.2766 11.3428 17.1456C11.1608 16.0146 11.3401 14.855 11.8551 13.8317C12.3701 12.8084 13.1947 11.9736 14.2115 11.446C15.2284 10.9184 16.3857 10.7249 17.5188 10.8929C18.6747 11.0643 19.7448 11.6029 20.5711 12.4292C21.3974 13.2554 21.936 14.3256 22.1074 15.4814Z" stroke="white" stroke-width="2.72316" stroke-linecap="round" stroke-linejoin="round" />
	<path d="M24.1497 8.8501H24.1638" stroke="white" stroke-width="2.72316" stroke-linecap="round" stroke-linejoin="round" />
</svg>
