<svg width="64" height="64" viewBox="0 0 64 64" fill="none" xmlns="http://www.w3.org/2000/svg">
	<path d="M48 10.6667H16C13.0545 10.6667 10.6667 13.0545 10.6667 16V48C10.6667 50.9455 13.0545 53.3333 16 53.3333H48C50.9455 53.3333 53.3333 50.9455 53.3333 48V16C53.3333 13.0545 50.9455 10.6667 48 10.6667Z" stroke="#9038FF" stroke-width="2" stroke-linecap="round" stroke-linejoin="round" />
	<path d="M40 24H24V40H40V24Z" stroke="#9038FF" stroke-width="2" stroke-linecap="round" stroke-linejoin="round" />
	<path d="M24 2.66666V10.6667" stroke="#9038FF" stroke-width="2" stroke-linecap="round" stroke-linejoin="round" />
	<path d="M40 2.66666V10.6667" stroke="#9038FF" stroke-width="2" stroke-linecap="round" stroke-linejoin="round" />
	<path d="M24 53.3333V61.3333" stroke="#9038FF" stroke-width="2" stroke-linecap="round" stroke-linejoin="round" />
	<path d="M40 53.3333V61.3333" stroke="#9038FF" stroke-width="2" stroke-linecap="round" stroke-linejoin="round" />
	<path d="M53.3333 24H61.3333" stroke="#9038FF" stroke-width="2" stroke-linecap="round" stroke-linejoin="round" />
	<path d="M53.3333 37.3333H61.3333" stroke="#9038FF" stroke-width="2" stroke-linecap="round" stroke-linejoin="round" />
	<path d="M2.66667 24H10.6667" stroke="#9038FF" stroke-width="2" stroke-linecap="round" stroke-linejoin="round" />
	<path d="M2.66667 37.3333H10.6667" stroke="#9038FF" stroke-width="2" stroke-linecap="round" stroke-linejoin="round" />
</svg>
