<svg width="33" height="28" viewBox="0 0 33 28" fill="none" xmlns="http://www.w3.org/2000/svg">
	<path d="M31.3164 2.08498C30.0125 3.0047 28.5688 3.70814 27.041 4.1682C26.221 3.22532 25.1312 2.55703 23.9189 2.25372C22.7067 1.9504 21.4306 2.0267 20.2632 2.47229C19.0957 2.91788 18.0933 3.71126 17.3915 4.74513C16.6896 5.779 16.3222 7.00347 16.339 8.25295V9.61453C13.9462 9.67657 11.5752 9.14589 9.43713 8.06974C7.29908 6.99359 5.46037 5.40538 4.08474 3.44656C4.08474 3.44656 -1.36159 15.7008 10.8926 21.1471C8.0885 23.0506 4.74804 24.005 1.36157 23.8703C13.6158 30.6782 28.5932 23.8703 28.5932 8.2121C28.592 7.83283 28.5555 7.45451 28.4843 7.08199C29.8739 5.71154 30.8546 3.98127 31.3164 2.08498V2.08498Z" stroke="white" stroke-width="2.72316" stroke-linecap="round" stroke-linejoin="round" />
</svg>
